<mxfile host="app.diagrams.net" agent="Mozilla/5.0 (X11; Linux x86_64; rv:132.0) Gecko/20100101 Firefox/132.0" version="24.8.4">
  <diagram name="Page-1" id="g-8VrxECPGMRBqIFdhwS">
    <mxGraphModel dx="2390" dy="1297" grid="1" gridSize="10" guides="1" tooltips="1" connect="1" arrows="1" fold="1" page="1" pageScale="1" pageWidth="2000" pageHeight="2000" math="0" shadow="0">
      <root>
        <mxCell id="0" />
        <mxCell id="1" parent="0" />
        <mxCell id="-DnWc0YM8DA9V4ft4U6J-65" style="edgeStyle=orthogonalEdgeStyle;rounded=0;orthogonalLoop=1;jettySize=auto;html=1;exitX=0.5;exitY=1;exitDx=0;exitDy=0;entryX=0.5;entryY=0;entryDx=0;entryDy=0;" edge="1" parent="1" source="-DnWc0YM8DA9V4ft4U6J-52" target="-DnWc0YM8DA9V4ft4U6J-53">
          <mxGeometry relative="1" as="geometry" />
        </mxCell>
        <mxCell id="-DnWc0YM8DA9V4ft4U6J-52" value="Start" style="ellipse;whiteSpace=wrap;html=1;" vertex="1" parent="1">
          <mxGeometry x="80" width="120" height="80" as="geometry" />
        </mxCell>
        <mxCell id="-DnWc0YM8DA9V4ft4U6J-66" style="edgeStyle=orthogonalEdgeStyle;rounded=0;orthogonalLoop=1;jettySize=auto;html=1;exitX=0.5;exitY=1;exitDx=0;exitDy=0;entryX=0.5;entryY=0;entryDx=0;entryDy=0;" edge="1" parent="1" source="-DnWc0YM8DA9V4ft4U6J-53" target="-DnWc0YM8DA9V4ft4U6J-54">
          <mxGeometry relative="1" as="geometry" />
        </mxCell>
        <mxCell id="-DnWc0YM8DA9V4ft4U6J-53" value="L = 2, R = -0.1" style="rounded=0;whiteSpace=wrap;html=1;" vertex="1" parent="1">
          <mxGeometry x="80" y="120" width="120" height="60" as="geometry" />
        </mxCell>
        <mxCell id="-DnWc0YM8DA9V4ft4U6J-67" style="edgeStyle=orthogonalEdgeStyle;rounded=0;orthogonalLoop=1;jettySize=auto;html=1;exitX=0.5;exitY=1;exitDx=0;exitDy=0;entryX=0.5;entryY=0;entryDx=0;entryDy=0;" edge="1" parent="1" source="-DnWc0YM8DA9V4ft4U6J-54" target="-DnWc0YM8DA9V4ft4U6J-56">
          <mxGeometry relative="1" as="geometry" />
        </mxCell>
        <mxCell id="-DnWc0YM8DA9V4ft4U6J-54" value="x = L" style="rounded=0;whiteSpace=wrap;html=1;" vertex="1" parent="1">
          <mxGeometry x="80" y="220" width="120" height="60" as="geometry" />
        </mxCell>
        <mxCell id="-DnWc0YM8DA9V4ft4U6J-68" value="Yes" style="edgeStyle=orthogonalEdgeStyle;rounded=0;orthogonalLoop=1;jettySize=auto;html=1;exitX=0.5;exitY=1;exitDx=0;exitDy=0;entryX=0.5;entryY=0;entryDx=0;entryDy=0;" edge="1" parent="1" source="-DnWc0YM8DA9V4ft4U6J-56" target="-DnWc0YM8DA9V4ft4U6J-58">
          <mxGeometry relative="1" as="geometry" />
        </mxCell>
        <mxCell id="-DnWc0YM8DA9V4ft4U6J-80" style="edgeStyle=orthogonalEdgeStyle;rounded=0;orthogonalLoop=1;jettySize=auto;html=1;exitX=0;exitY=0.5;exitDx=0;exitDy=0;entryX=0;entryY=0.5;entryDx=0;entryDy=0;" edge="1" parent="1" source="-DnWc0YM8DA9V4ft4U6J-56" target="-DnWc0YM8DA9V4ft4U6J-64">
          <mxGeometry relative="1" as="geometry">
            <Array as="points">
              <mxPoint x="20" y="360" />
              <mxPoint x="20" y="1080" />
            </Array>
          </mxGeometry>
        </mxCell>
        <mxCell id="-DnWc0YM8DA9V4ft4U6J-81" value="No" style="edgeLabel;html=1;align=center;verticalAlign=middle;resizable=0;points=[];" vertex="1" connectable="0" parent="-DnWc0YM8DA9V4ft4U6J-80">
          <mxGeometry x="-0.9573" y="-1" relative="1" as="geometry">
            <mxPoint as="offset" />
          </mxGeometry>
        </mxCell>
        <mxCell id="-DnWc0YM8DA9V4ft4U6J-56" value="x &amp;lt;= R?" style="rhombus;whiteSpace=wrap;html=1;" vertex="1" parent="1">
          <mxGeometry x="100" y="320" width="80" height="80" as="geometry" />
        </mxCell>
        <mxCell id="-DnWc0YM8DA9V4ft4U6J-69" style="edgeStyle=orthogonalEdgeStyle;rounded=0;orthogonalLoop=1;jettySize=auto;html=1;exitX=0.5;exitY=1;exitDx=0;exitDy=0;entryX=0.5;entryY=0;entryDx=0;entryDy=0;" edge="1" parent="1" source="-DnWc0YM8DA9V4ft4U6J-58" target="-DnWc0YM8DA9V4ft4U6J-59">
          <mxGeometry relative="1" as="geometry" />
        </mxCell>
        <mxCell id="-DnWc0YM8DA9V4ft4U6J-58" value="print current x" style="shape=parallelogram;perimeter=parallelogramPerimeter;whiteSpace=wrap;html=1;fixedSize=1;" vertex="1" parent="1">
          <mxGeometry x="80" y="440" width="120" height="60" as="geometry" />
        </mxCell>
        <mxCell id="-DnWc0YM8DA9V4ft4U6J-70" style="edgeStyle=orthogonalEdgeStyle;rounded=0;orthogonalLoop=1;jettySize=auto;html=1;exitX=0.5;exitY=1;exitDx=0;exitDy=0;entryX=0.5;entryY=0;entryDx=0;entryDy=0;" edge="1" parent="1" source="-DnWc0YM8DA9V4ft4U6J-59" target="-DnWc0YM8DA9V4ft4U6J-60">
          <mxGeometry relative="1" as="geometry" />
        </mxCell>
        <mxCell id="-DnWc0YM8DA9V4ft4U6J-59" value="f_setn(x)" style="shape=process;whiteSpace=wrap;html=1;backgroundOutline=1;" vertex="1" parent="1">
          <mxGeometry x="80" y="540" width="120" height="60" as="geometry" />
        </mxCell>
        <mxCell id="-DnWc0YM8DA9V4ft4U6J-71" style="edgeStyle=orthogonalEdgeStyle;rounded=0;orthogonalLoop=1;jettySize=auto;html=1;exitX=0.5;exitY=1;exitDx=0;exitDy=0;entryX=0.5;entryY=0;entryDx=0;entryDy=0;" edge="1" parent="1" source="-DnWc0YM8DA9V4ft4U6J-60" target="-DnWc0YM8DA9V4ft4U6J-61">
          <mxGeometry relative="1" as="geometry" />
        </mxCell>
        <mxCell id="-DnWc0YM8DA9V4ft4U6J-60" value="print &quot;Function for set N (40): f_setn(x)&quot;" style="shape=parallelogram;perimeter=parallelogramPerimeter;whiteSpace=wrap;html=1;fixedSize=1;" vertex="1" parent="1">
          <mxGeometry x="40" y="640" width="200" height="60" as="geometry" />
        </mxCell>
        <mxCell id="-DnWc0YM8DA9V4ft4U6J-73" style="edgeStyle=orthogonalEdgeStyle;rounded=0;orthogonalLoop=1;jettySize=auto;html=1;exitX=0.5;exitY=1;exitDx=0;exitDy=0;entryX=0.5;entryY=0;entryDx=0;entryDy=0;" edge="1" parent="1" source="-DnWc0YM8DA9V4ft4U6J-61" target="-DnWc0YM8DA9V4ft4U6J-62">
          <mxGeometry relative="1" as="geometry" />
        </mxCell>
        <mxCell id="-DnWc0YM8DA9V4ft4U6J-61" value="f_setepsilon(x)" style="shape=process;whiteSpace=wrap;html=1;backgroundOutline=1;" vertex="1" parent="1">
          <mxGeometry x="80" y="740" width="120" height="60" as="geometry" />
        </mxCell>
        <mxCell id="-DnWc0YM8DA9V4ft4U6J-74" style="edgeStyle=orthogonalEdgeStyle;rounded=0;orthogonalLoop=1;jettySize=auto;html=1;exitX=0.5;exitY=1;exitDx=0;exitDy=0;entryX=0.5;entryY=0;entryDx=0;entryDy=0;" edge="1" parent="1" source="-DnWc0YM8DA9V4ft4U6J-62" target="-DnWc0YM8DA9V4ft4U6J-63">
          <mxGeometry relative="1" as="geometry" />
        </mxCell>
        <mxCell id="-DnWc0YM8DA9V4ft4U6J-62" value="print &quot;Function for set epsilon (0.0001): f_setepsilon(x)&quot;" style="shape=parallelogram;perimeter=parallelogramPerimeter;whiteSpace=wrap;html=1;fixedSize=1;" vertex="1" parent="1">
          <mxGeometry x="40" y="840" width="200" height="60" as="geometry" />
        </mxCell>
        <mxCell id="-DnWc0YM8DA9V4ft4U6J-79" style="edgeStyle=orthogonalEdgeStyle;rounded=0;orthogonalLoop=1;jettySize=auto;html=1;exitX=1;exitY=0.5;exitDx=0;exitDy=0;entryX=1;entryY=0.5;entryDx=0;entryDy=0;" edge="1" parent="1" source="-DnWc0YM8DA9V4ft4U6J-63" target="-DnWc0YM8DA9V4ft4U6J-56">
          <mxGeometry relative="1" as="geometry">
            <Array as="points">
              <mxPoint x="280" y="970" />
              <mxPoint x="280" y="360" />
            </Array>
          </mxGeometry>
        </mxCell>
        <mxCell id="-DnWc0YM8DA9V4ft4U6J-63" value="x += (R-L)/10" style="rounded=0;whiteSpace=wrap;html=1;" vertex="1" parent="1">
          <mxGeometry x="80" y="940" width="120" height="60" as="geometry" />
        </mxCell>
        <mxCell id="-DnWc0YM8DA9V4ft4U6J-64" value="End" style="ellipse;whiteSpace=wrap;html=1;" vertex="1" parent="1">
          <mxGeometry x="80" y="1040" width="120" height="80" as="geometry" />
        </mxCell>
        <mxCell id="-DnWc0YM8DA9V4ft4U6J-90" style="edgeStyle=orthogonalEdgeStyle;rounded=0;orthogonalLoop=1;jettySize=auto;html=1;exitX=0.5;exitY=1;exitDx=0;exitDy=0;entryX=0.5;entryY=0;entryDx=0;entryDy=0;" edge="1" parent="1" source="-DnWc0YM8DA9V4ft4U6J-82" target="-DnWc0YM8DA9V4ft4U6J-83">
          <mxGeometry relative="1" as="geometry" />
        </mxCell>
        <mxCell id="-DnWc0YM8DA9V4ft4U6J-82" value="&lt;div&gt;f_setn(x)&lt;/div&gt;&lt;div&gt;double x&lt;br&gt;&lt;/div&gt;" style="ellipse;whiteSpace=wrap;html=1;" vertex="1" parent="1">
          <mxGeometry x="440" width="120" height="80" as="geometry" />
        </mxCell>
        <mxCell id="-DnWc0YM8DA9V4ft4U6J-91" style="edgeStyle=orthogonalEdgeStyle;rounded=0;orthogonalLoop=1;jettySize=auto;html=1;exitX=0.5;exitY=1;exitDx=0;exitDy=0;entryX=0.5;entryY=0;entryDx=0;entryDy=0;" edge="1" parent="1" source="-DnWc0YM8DA9V4ft4U6J-83" target="-DnWc0YM8DA9V4ft4U6J-87">
          <mxGeometry relative="1" as="geometry" />
        </mxCell>
        <mxCell id="-DnWc0YM8DA9V4ft4U6J-83" value="N = 40" style="rounded=0;whiteSpace=wrap;html=1;" vertex="1" parent="1">
          <mxGeometry x="440" y="120" width="120" height="60" as="geometry" />
        </mxCell>
        <mxCell id="-DnWc0YM8DA9V4ft4U6J-93" style="edgeStyle=orthogonalEdgeStyle;rounded=0;orthogonalLoop=1;jettySize=auto;html=1;exitX=0.5;exitY=1;exitDx=0;exitDy=0;entryX=0.5;entryY=0;entryDx=0;entryDy=0;" edge="1" parent="1" source="-DnWc0YM8DA9V4ft4U6J-84" target="-DnWc0YM8DA9V4ft4U6J-85">
          <mxGeometry relative="1" as="geometry" />
        </mxCell>
        <mxCell id="-DnWc0YM8DA9V4ft4U6J-84" value="n = 0" style="rounded=0;whiteSpace=wrap;html=1;" vertex="1" parent="1">
          <mxGeometry x="440" y="320" width="120" height="60" as="geometry" />
        </mxCell>
        <mxCell id="-DnWc0YM8DA9V4ft4U6J-94" value="Yes" style="edgeStyle=orthogonalEdgeStyle;rounded=0;orthogonalLoop=1;jettySize=auto;html=1;exitX=0.5;exitY=1;exitDx=0;exitDy=0;entryX=0.5;entryY=0;entryDx=0;entryDy=0;" edge="1" parent="1" source="-DnWc0YM8DA9V4ft4U6J-85" target="-DnWc0YM8DA9V4ft4U6J-86">
          <mxGeometry relative="1" as="geometry" />
        </mxCell>
        <mxCell id="-DnWc0YM8DA9V4ft4U6J-97" style="edgeStyle=orthogonalEdgeStyle;rounded=0;orthogonalLoop=1;jettySize=auto;html=1;exitX=0;exitY=0.5;exitDx=0;exitDy=0;entryX=0;entryY=0.5;entryDx=0;entryDy=0;" edge="1" parent="1" source="-DnWc0YM8DA9V4ft4U6J-85" target="-DnWc0YM8DA9V4ft4U6J-89">
          <mxGeometry relative="1" as="geometry">
            <Array as="points">
              <mxPoint x="400" y="460" />
              <mxPoint x="400" y="780" />
            </Array>
          </mxGeometry>
        </mxCell>
        <mxCell id="-DnWc0YM8DA9V4ft4U6J-98" value="No" style="edgeLabel;html=1;align=center;verticalAlign=middle;resizable=0;points=[];" vertex="1" connectable="0" parent="-DnWc0YM8DA9V4ft4U6J-97">
          <mxGeometry x="-0.9444" relative="1" as="geometry">
            <mxPoint as="offset" />
          </mxGeometry>
        </mxCell>
        <mxCell id="-DnWc0YM8DA9V4ft4U6J-85" value="n &amp;lt;= N?" style="rhombus;whiteSpace=wrap;html=1;" vertex="1" parent="1">
          <mxGeometry x="460" y="420" width="80" height="80" as="geometry" />
        </mxCell>
        <mxCell id="-DnWc0YM8DA9V4ft4U6J-95" style="edgeStyle=orthogonalEdgeStyle;rounded=0;orthogonalLoop=1;jettySize=auto;html=1;exitX=0.5;exitY=1;exitDx=0;exitDy=0;entryX=0.5;entryY=0;entryDx=0;entryDy=0;" edge="1" parent="1" source="-DnWc0YM8DA9V4ft4U6J-86" target="-DnWc0YM8DA9V4ft4U6J-88">
          <mxGeometry relative="1" as="geometry" />
        </mxCell>
        <mxCell id="-DnWc0YM8DA9V4ft4U6J-86" value="sum += (pow(-1, n)*pow(1+x, 2*n)/n)" style="rounded=0;whiteSpace=wrap;html=1;" vertex="1" parent="1">
          <mxGeometry x="440" y="540" width="120" height="60" as="geometry" />
        </mxCell>
        <mxCell id="-DnWc0YM8DA9V4ft4U6J-92" style="edgeStyle=orthogonalEdgeStyle;rounded=0;orthogonalLoop=1;jettySize=auto;html=1;exitX=0.5;exitY=1;exitDx=0;exitDy=0;entryX=0.5;entryY=0;entryDx=0;entryDy=0;" edge="1" parent="1" source="-DnWc0YM8DA9V4ft4U6J-87" target="-DnWc0YM8DA9V4ft4U6J-84">
          <mxGeometry relative="1" as="geometry" />
        </mxCell>
        <mxCell id="-DnWc0YM8DA9V4ft4U6J-87" value="sum = 0" style="rounded=0;whiteSpace=wrap;html=1;" vertex="1" parent="1">
          <mxGeometry x="440" y="220" width="120" height="60" as="geometry" />
        </mxCell>
        <mxCell id="-DnWc0YM8DA9V4ft4U6J-96" style="edgeStyle=orthogonalEdgeStyle;rounded=0;orthogonalLoop=1;jettySize=auto;html=1;exitX=1;exitY=0.5;exitDx=0;exitDy=0;entryX=1;entryY=0.5;entryDx=0;entryDy=0;" edge="1" parent="1" source="-DnWc0YM8DA9V4ft4U6J-88" target="-DnWc0YM8DA9V4ft4U6J-85">
          <mxGeometry relative="1" as="geometry" />
        </mxCell>
        <mxCell id="-DnWc0YM8DA9V4ft4U6J-88" value="n++" style="rounded=0;whiteSpace=wrap;html=1;" vertex="1" parent="1">
          <mxGeometry x="440" y="640" width="120" height="60" as="geometry" />
        </mxCell>
        <mxCell id="-DnWc0YM8DA9V4ft4U6J-89" value="return sum" style="ellipse;whiteSpace=wrap;html=1;" vertex="1" parent="1">
          <mxGeometry x="440" y="740" width="120" height="80" as="geometry" />
        </mxCell>
        <mxCell id="-DnWc0YM8DA9V4ft4U6J-109" style="edgeStyle=orthogonalEdgeStyle;rounded=0;orthogonalLoop=1;jettySize=auto;html=1;exitX=0.5;exitY=1;exitDx=0;exitDy=0;entryX=0.5;entryY=0;entryDx=0;entryDy=0;" edge="1" parent="1" source="-DnWc0YM8DA9V4ft4U6J-99" target="-DnWc0YM8DA9V4ft4U6J-100">
          <mxGeometry relative="1" as="geometry" />
        </mxCell>
        <mxCell id="-DnWc0YM8DA9V4ft4U6J-99" value="&lt;div&gt;f_setepsilon(x)&lt;/div&gt;&lt;div&gt;double x&lt;br&gt;&lt;/div&gt;" style="ellipse;whiteSpace=wrap;html=1;" vertex="1" parent="1">
          <mxGeometry x="780" width="120" height="80" as="geometry" />
        </mxCell>
        <mxCell id="-DnWc0YM8DA9V4ft4U6J-110" style="edgeStyle=orthogonalEdgeStyle;rounded=0;orthogonalLoop=1;jettySize=auto;html=1;exitX=0.5;exitY=1;exitDx=0;exitDy=0;entryX=0.5;entryY=0;entryDx=0;entryDy=0;" edge="1" parent="1" source="-DnWc0YM8DA9V4ft4U6J-100" target="-DnWc0YM8DA9V4ft4U6J-101">
          <mxGeometry relative="1" as="geometry" />
        </mxCell>
        <mxCell id="-DnWc0YM8DA9V4ft4U6J-100" value="EPSILON = 0.0001" style="rounded=0;whiteSpace=wrap;html=1;" vertex="1" parent="1">
          <mxGeometry x="780" y="120" width="120" height="60" as="geometry" />
        </mxCell>
        <mxCell id="-DnWc0YM8DA9V4ft4U6J-111" style="edgeStyle=orthogonalEdgeStyle;rounded=0;orthogonalLoop=1;jettySize=auto;html=1;exitX=0.5;exitY=1;exitDx=0;exitDy=0;entryX=0.5;entryY=0;entryDx=0;entryDy=0;" edge="1" parent="1" source="-DnWc0YM8DA9V4ft4U6J-101" target="-DnWc0YM8DA9V4ft4U6J-102">
          <mxGeometry relative="1" as="geometry" />
        </mxCell>
        <mxCell id="-DnWc0YM8DA9V4ft4U6J-101" value="sum = 0, part = 0, prevpart = -1" style="rounded=0;whiteSpace=wrap;html=1;" vertex="1" parent="1">
          <mxGeometry x="780" y="220" width="120" height="60" as="geometry" />
        </mxCell>
        <mxCell id="-DnWc0YM8DA9V4ft4U6J-112" style="edgeStyle=orthogonalEdgeStyle;rounded=0;orthogonalLoop=1;jettySize=auto;html=1;exitX=0.5;exitY=1;exitDx=0;exitDy=0;entryX=0.5;entryY=0;entryDx=0;entryDy=0;" edge="1" parent="1" source="-DnWc0YM8DA9V4ft4U6J-102" target="-DnWc0YM8DA9V4ft4U6J-103">
          <mxGeometry relative="1" as="geometry" />
        </mxCell>
        <mxCell id="-DnWc0YM8DA9V4ft4U6J-102" value="sum += part" style="rounded=0;whiteSpace=wrap;html=1;" vertex="1" parent="1">
          <mxGeometry x="780" y="320" width="120" height="60" as="geometry" />
        </mxCell>
        <mxCell id="-DnWc0YM8DA9V4ft4U6J-113" style="edgeStyle=orthogonalEdgeStyle;rounded=0;orthogonalLoop=1;jettySize=auto;html=1;exitX=0.5;exitY=1;exitDx=0;exitDy=0;entryX=0.5;entryY=0;entryDx=0;entryDy=0;" edge="1" parent="1" source="-DnWc0YM8DA9V4ft4U6J-103" target="-DnWc0YM8DA9V4ft4U6J-104">
          <mxGeometry relative="1" as="geometry" />
        </mxCell>
        <mxCell id="-DnWc0YM8DA9V4ft4U6J-103" value="prevpart = part" style="rounded=0;whiteSpace=wrap;html=1;" vertex="1" parent="1">
          <mxGeometry x="780" y="420" width="120" height="60" as="geometry" />
        </mxCell>
        <mxCell id="-DnWc0YM8DA9V4ft4U6J-114" style="edgeStyle=orthogonalEdgeStyle;rounded=0;orthogonalLoop=1;jettySize=auto;html=1;exitX=0.5;exitY=1;exitDx=0;exitDy=0;entryX=0.5;entryY=0;entryDx=0;entryDy=0;" edge="1" parent="1" source="-DnWc0YM8DA9V4ft4U6J-104" target="-DnWc0YM8DA9V4ft4U6J-105">
          <mxGeometry relative="1" as="geometry" />
        </mxCell>
        <mxCell id="-DnWc0YM8DA9V4ft4U6J-104" value="part = (pow(-1, n)*pow(1+x, 2*n)/n)" style="rounded=0;whiteSpace=wrap;html=1;" vertex="1" parent="1">
          <mxGeometry x="780" y="520" width="120" height="60" as="geometry" />
        </mxCell>
        <mxCell id="-DnWc0YM8DA9V4ft4U6J-115" style="edgeStyle=orthogonalEdgeStyle;rounded=0;orthogonalLoop=1;jettySize=auto;html=1;exitX=0.5;exitY=1;exitDx=0;exitDy=0;entryX=0.5;entryY=0;entryDx=0;entryDy=0;" edge="1" parent="1" source="-DnWc0YM8DA9V4ft4U6J-105" target="-DnWc0YM8DA9V4ft4U6J-106">
          <mxGeometry relative="1" as="geometry" />
        </mxCell>
        <mxCell id="-DnWc0YM8DA9V4ft4U6J-105" value="n++" style="rounded=0;whiteSpace=wrap;html=1;" vertex="1" parent="1">
          <mxGeometry x="780" y="620" width="120" height="60" as="geometry" />
        </mxCell>
        <mxCell id="-DnWc0YM8DA9V4ft4U6J-108" value="No" style="edgeStyle=orthogonalEdgeStyle;rounded=0;orthogonalLoop=1;jettySize=auto;html=1;exitX=0.5;exitY=1;exitDx=0;exitDy=0;entryX=0.5;entryY=0;entryDx=0;entryDy=0;" edge="1" parent="1" source="-DnWc0YM8DA9V4ft4U6J-106" target="-DnWc0YM8DA9V4ft4U6J-107">
          <mxGeometry relative="1" as="geometry" />
        </mxCell>
        <mxCell id="-DnWc0YM8DA9V4ft4U6J-116" style="edgeStyle=orthogonalEdgeStyle;rounded=0;orthogonalLoop=1;jettySize=auto;html=1;exitX=1;exitY=0.5;exitDx=0;exitDy=0;entryX=1;entryY=0.5;entryDx=0;entryDy=0;" edge="1" parent="1" source="-DnWc0YM8DA9V4ft4U6J-106" target="-DnWc0YM8DA9V4ft4U6J-102">
          <mxGeometry relative="1" as="geometry" />
        </mxCell>
        <mxCell id="-DnWc0YM8DA9V4ft4U6J-117" value="Yes" style="edgeLabel;html=1;align=center;verticalAlign=middle;resizable=0;points=[];" vertex="1" connectable="0" parent="-DnWc0YM8DA9V4ft4U6J-116">
          <mxGeometry x="-0.9473" y="-2" relative="1" as="geometry">
            <mxPoint x="7" y="-22" as="offset" />
          </mxGeometry>
        </mxCell>
        <mxCell id="-DnWc0YM8DA9V4ft4U6J-106" value="abs(part - prevpart) &amp;gt; EPSILON?" style="rhombus;whiteSpace=wrap;html=1;" vertex="1" parent="1">
          <mxGeometry x="760" y="720" width="160" height="100" as="geometry" />
        </mxCell>
        <mxCell id="-DnWc0YM8DA9V4ft4U6J-107" value="return sum" style="ellipse;whiteSpace=wrap;html=1;" vertex="1" parent="1">
          <mxGeometry x="780" y="860" width="120" height="80" as="geometry" />
        </mxCell>
      </root>
    </mxGraphModel>
  </diagram>
</mxfile>
